<?xml version="1.0" standalone="no"?>
<!DOCTYPE svg PUBLIC "-//W3C//DTD SVG 20010904//EN"
 "http://www.w3.org/TR/2001/REC-SVG-20010904/DTD/svg10.dtd">
<svg version="1.0" xmlns="http://www.w3.org/2000/svg"
 width="730.000000pt" height="640.000000pt" viewBox="0 0 730.000000 640.000000"
 preserveAspectRatio="xMidYMid meet">

<g transform="translate(0.000000,640.000000) scale(0.100000,-0.100000)"
fill="#000000" stroke="none">
<path d="M7058 5583 c-10 -3 -21 -22 -28 -51 -11 -46 -45 -103 -107 -178 -17
-22 -50 -62 -72 -91 -29 -36 -56 -59 -98 -78 -54 -25 -67 -27 -193 -27 -107 0
-149 4 -205 21 -38 11 -92 21 -120 21 -27 0 -70 7 -94 16 -25 8 -70 14 -100
13 -31 0 -96 2 -145 6 -49 3 -112 8 -140 9 -28 2 -64 8 -79 15 -44 17 -57 14
-57 -14 0 -34 21 -73 59 -109 17 -16 40 -46 50 -67 11 -21 25 -46 30 -56 49
-86 116 -245 151 -355 23 -73 46 -142 51 -153 13 -31 59 -217 59 -241 0 -33
21 -44 76 -40 27 2 57 0 67 -6 10 -5 42 -16 70 -23 44 -12 54 -12 66 0 13 13
13 19 -2 51 -10 20 -25 66 -33 103 -28 124 -32 136 -57 216 -14 44 -28 95 -31
113 -3 19 -13 49 -21 68 -8 19 -22 49 -30 68 -37 84 1 115 96 78 23 -9 286
-24 410 -24 19 0 72 14 117 32 74 28 88 39 162 117 82 86 137 177 161 266 13
48 22 294 11 300 -4 2 -14 2 -24 0z"/>
<path d="M7010 3128 c-34 -61 -126 -160 -167 -182 -16 -8 -47 -18 -68 -22 -22
-4 -70 -18 -107 -31 -37 -12 -76 -23 -87 -23 -10 0 -36 -7 -57 -16 -57 -24
-387 -21 -457 4 -42 15 -49 15 -57 2 -14 -21 -52 -127 -90 -245 -61 -191 -185
-468 -252 -560 -16 -22 -44 -65 -61 -95 -20 -35 -44 -60 -64 -70 -33 -15 -46
-40 -36 -67 5 -12 15 -14 47 -8 89 15 164 20 216 12 33 -5 63 -4 76 2 38 17
206 326 270 499 51 136 96 220 123 232 16 6 91 9 191 8 156 -3 170 -1 260 25
145 44 233 120 327 287 31 55 68 251 53 279 -16 32 -27 26 -60 -31z"/>
<path d="M7141 944 c-11 -15 -21 -32 -21 -38 0 -32 -70 -144 -136 -217 -75
-82 -176 -169 -198 -169 -6 0 -47 -13 -89 -30 -43 -16 -94 -30 -112 -30 -19 0
-54 -7 -79 -15 -24 -8 -82 -22 -127 -30 -309 -53 -587 -68 -790 -40 -68 9
-149 19 -179 21 -30 2 -77 10 -105 19 -27 8 -62 15 -77 15 -15 0 -61 13 -103
30 -41 16 -79 29 -83 28 -4 -1 -18 3 -32 9 -69 30 -130 53 -141 53 -11 0 -96
37 -248 107 -41 19 -89 46 -108 60 -22 17 -51 28 -84 31 -45 4 -55 1 -104 -33
-30 -20 -80 -47 -112 -60 -39 -16 -59 -30 -61 -43 -4 -24 21 -50 56 -58 15 -4
38 -17 52 -29 32 -29 99 -65 122 -65 10 0 18 -4 18 -9 0 -5 17 -16 38 -25 20
-9 65 -31 99 -49 76 -40 97 -48 203 -83 47 -15 90 -31 96 -36 33 -24 296 -94
314 -83 5 3 10 1 12 -4 5 -15 219 -56 348 -66 36 -3 92 -8 125 -12 157 -19
680 6 795 37 19 5 73 14 120 20 47 7 99 18 115 25 17 7 75 25 130 39 55 15
114 32 130 38 29 11 74 54 75 72 0 5 11 23 23 40 81 107 149 279 151 381 0 40
6 74 13 80 7 6 13 39 14 75 3 59 1 65 -18 68 -13 2 -29 -7 -42 -24z"/>
</g>
</svg>
